<svg xmlns="http://www.w3.org/2000/svg" xmlns:xlink="http://www.w3.org/1999/xlink" width="256" zoomAndPan="magnify" viewBox="0 0 192 192" height="256" preserveAspectRatio="xMidYMid meet" xmlns:v="https://vecta.io/nano"><defs><clipPath id="A"><path d="M27.664 7H92v82H27.664zm0 0" clip-rule="nonzero"/></clipPath><clipPath id="B"><path d="M100 61h64v82.258h-64zm0 0" clip-rule="nonzero"/></clipPath><path id="C" d="M68.409 157.582c.195-1.031.113-1.879-.25-2.547-.355-.676-.859-1.187-1.516-1.531-.336-.156-.699-.281-1.094-.375-.387-.094-.781-.148-1.187-.172a7.07 7.07 0 0 0-1.219.047c-.398.043-.758.133-1.078.266-.668.281-1.23.703-1.687 1.266s-.773 1.188-.937 1.875-.156 1.398.031 2.125.594 1.398 1.219 2c.195.168.41.313.641.438.238.125.492.215.766.266l.922.172c.332.063.641.156.922.281s.523.289.734.484.332.465.375.797c.082.48-.012.84-.281 1.078-.273.23-.59.352-.953.359-.367 0-.711-.109-1.031-.328s-.496-.547-.516-.984c-.469.012-.996 0-1.578-.031a7.41 7.41 0 0 0-1.578.047v.125c-.043.656.07 1.246.344 1.766.281.512.648.949 1.109 1.313a5.42 5.42 0 0 0 1.594.828c.602.199 1.207.305 1.813.328a5.77 5.77 0 0 0 1.25-.109c.406-.094.781-.234 1.125-.422.352-.195.664-.445.938-.75.281-.301.504-.664.672-1.094a5.03 5.03 0 0 0 .359-1.125c.07-.395.098-.785.078-1.172-.012-.383-.078-.758-.203-1.125a3.38 3.38 0 0 0-.562-1.016c-.398-.594-.906-1.082-1.531-1.469s-1.305-.617-2.031-.703c-.293-.039-.562-.113-.812-.219-.25-.113-.43-.332-.531-.656l-.031-.281c-.012-.094 0-.187.031-.281.051-.383.234-.645.547-.781a1.54 1.54 0 0 1 .953-.094c.332.063.613.219.844.469.238.242.316.547.234.922a4.84 4.84 0 0 0 1.547.172 11.02 11.02 0 0 0 1.547-.156zm0 0"/><path id="D" d="M96.721 181.157c.082.023.211.039.391.047h.625.719l.703-.047.578-.047.344-.047a7.19 7.19 0 0 0-.016-1.047 2.75 2.75 0 0 0-.219-.937 1.85 1.85 0 0 0-.531-.719c-.23-.207-.539-.344-.922-.406a3.66 3.66 0 0 0-.922-.094 2.93 2.93 0 0 0-.906.141c-.281.086-.539.215-.766.391-.219.168-.387.371-.5.609-.094.281-.156.57-.187.859l-.078.891c-.023.336-.016.672.016 1.016a6.46 6.46 0 0 0 .188.984c.094.305.211.578.359.828.156.25.348.461.578.625.195.113.41.188.641.219l.766.016a5.86 5.86 0 0 0 .828 0c.27-.012.516-.059.734-.141a1.2 1.2 0 0 0 .563-.422c.051-.051.094-.141.125-.266.039-.133.07-.289.094-.469.031-.176.051-.367.063-.578l.063-.641c-.094-.031-.215-.047-.359-.047l-.437.016-.453.016a2.48 2.48 0 0 1-.328-.016c.02.344-.031.605-.156.781-.125.168-.277.266-.453.297-.168.031-.344.008-.531-.078-.18-.094-.32-.238-.422-.437-.094-.145-.148-.297-.156-.453l-.031-.625zm1.516-1.937a.81.81 0 0 1 .344.344c.094.148.141.305.141.469v.125c0 .023-.027.039-.078.047a2.49 2.49 0 0 1-.234-.016l-.469-.016-.734.016c-.156 0-.273-.004-.344-.016s-.117-.031-.125-.062a1.77 1.77 0 0 1 .016-.203c.02-.113.047-.219.078-.312a.76.76 0 0 1 .172-.266c.082-.07.188-.129.313-.172a1.64 1.64 0 0 1 .484-.062.79.79 0 0 1 .234.031c.063.023.129.055.203.094zm0 0"/><path id="E" d="M102.497 178.486a.4.4 0 0 0-.016-.125v-.078-.078-.156c0-.008-.039-.016-.109-.016a1.33 1.33 0 0 0-.25 0l-.281.031h-.172l-.266.031h-.187-.187l-.234-.031-.031 3.203.031 3.063.531-.016.406.016c.125.008.242.008.359 0 .113 0 .242-.023.391-.062v-.062l-.016-.859v-.797l-.016-.781-.016-.828c-.012-.238.02-.422.094-.547a.6.6 0 0 1 .313-.266c.145-.062.313-.094.5-.094s.391.012.609.031c.008 0 .066.012.172.031.102.012.207.031.313.063a1 1 0 0 1 .125.047l.141.031.109.047c-.012-.125-.016-.254-.016-.391v-.469-.594l.016-.75c0-.008-.062-.016-.187-.016-.117-.008-.262-.008-.437 0l-.578.063-.531.109-.359.141-.219.109zm0 0"/></defs><g clip-path="url(#A)"><path fill="#f99f09" d="M86.844 46.074H70.516a17.66 17.66 0 0 1-1.875-.004c-.629-.031-1.25-.098-1.871-.195a18.47 18.47 0 0 1-1.836-.387l-1.789-.578c-.586-.223-1.16-.477-1.719-.758a18.31 18.31 0 0 1-1.633-.934c-.527-.336-1.035-.703-1.523-1.094s-.957-.809-1.406-1.25-.867-.902-1.266-1.387a16.9 16.9 0 0 1-1.117-1.508c-.348-.523-.668-1.062-.957-1.617a18.18 18.18 0 0 1-.781-1.707c-.234-.582-.434-1.176-.605-1.781a18.27 18.27 0 0 1-.414-1.832 18.65 18.65 0 0 1-.223-1.863c-.043-.629-.051-1.254-.027-1.879V11.746c.016-1.559.285-3.07.816-4.535H37.867a9.93 9.93 0 0 0-1.922.168c-.633.121-1.25.301-1.848.539s-1.172.539-1.711.891-1.043.75-1.508 1.199a10.16 10.16 0 0 0-1.242 1.473c-.367.531-.68 1.094-.934 1.688a9.73 9.73 0 0 0-.59 1.832c-.137.633-.211 1.27-.223 1.914v62.219a9.85 9.85 0 0 0 .223 1.914c.137.633.332 1.242.59 1.836s.566 1.152.934 1.684.781 1.023 1.242 1.473a9.94 9.94 0 0 0 1.508 1.203c.539.352 1.109.648 1.711.887s1.215.422 1.848.539 1.277.176 1.922.172h43.535a9.87 9.87 0 0 0 1.918-.172 9.65 9.65 0 0 0 1.852-.539 9.87 9.87 0 0 0 1.711-.887 9.91 9.91 0 0 0 1.504-1.203c.461-.449.879-.941 1.242-1.473a10 10 0 0 0 .938-1.684 10.06 10.06 0 0 0 .59-1.836 9.85 9.85 0 0 0 .223-1.914V45.258c-1.461.551-2.973.82-4.535.816zm0 0"/></g><path fill="#f99f09" d="M89.973 29.203L68.203 8.48c-.316-.309-.676-.562-1.066-.762s-.809-.344-1.246-.426-.871-.098-1.312-.047a4.47 4.47 0 0 0-1.27.328c-.41.172-.789.402-1.129.687s-.637.609-.883.98-.434.77-.562 1.195a4.5 4.5 0 0 0-.195 1.309v15.555c-.047.66-.027 1.32.07 1.977s.258 1.297.492 1.918.535 1.207.898 1.762.785 1.063 1.262 1.527a9.18 9.18 0 0 0 1.559 1.215c.566.352 1.16.633 1.789.852a9.04 9.04 0 0 0 1.93.441 8.8 8.8 0 0 0 1.977.012h16.328a4.53 4.53 0 0 0 1.332-.199c.434-.133.84-.324 1.215-.582a4.58 4.58 0 0 0 .992-.91 4.51 4.51 0 0 0 .676-1.164c.168-.422.266-.855.305-1.305s.004-.895-.094-1.332-.254-.859-.477-1.25-.496-.746-.82-1.059zm0 0"/><g clip-path="url(#B)"><path fill="#f99f09" d="M154.867 61.629h-44.441c-.648-.008-1.285.051-1.922.168s-1.25.301-1.848.539-1.172.539-1.711.891-1.043.75-1.508 1.203-.875.938-1.242 1.469-.68 1.094-.934 1.688a9.73 9.73 0 0 0-.59 1.832c-.137.633-.211 1.27-.223 1.914v62.219c.012.648.086 1.285.223 1.914s.332 1.242.59 1.836.566 1.152.934 1.684.781 1.023 1.242 1.473a9.94 9.94 0 0 0 1.508 1.203c.539.352 1.109.648 1.711.887s1.215.422 1.848.539a9.91 9.91 0 0 0 1.922.172h43.535a9.87 9.87 0 0 0 1.918-.172 9.65 9.65 0 0 0 1.852-.539c.598-.238 1.168-.535 1.707-.887a9.94 9.94 0 0 0 1.508-1.203c.461-.449.875-.941 1.242-1.473a9.85 9.85 0 0 0 .938-1.684 10.06 10.06 0 0 0 .59-1.836c.137-.629.211-1.266.223-1.914V70.699c0-.598-.059-1.187-.176-1.77a9.21 9.21 0 0 0-.516-1.703c-.227-.551-.508-1.07-.84-1.566a9.05 9.05 0 0 0-1.125-1.375 9.27 9.27 0 0 0-1.375-1.129c-.496-.328-1.02-.609-1.57-.836s-1.117-.402-1.699-.516a9 9 0 0 0-1.77-.176zm-9.07 40.813h-27.211a4.48 4.48 0 0 1-.883-.086 4.56 4.56 0 0 1-.852-.258c-.273-.113-.535-.254-.785-.418s-.477-.355-.687-.566-.398-.437-.562-.687a4.55 4.55 0 0 1-.418-.781 4.65 4.65 0 0 1-.258-.852c-.059-.293-.09-.586-.09-.887s.031-.59.09-.883a4.65 4.65 0 0 1 .258-.852c.113-.273.254-.535.418-.785s.355-.477.563-.684.441-.398.688-.566.512-.305.785-.418a4.56 4.56 0 0 1 .852-.258 4.48 4.48 0 0 1 .883-.086h27.211a4.45 4.45 0 0 1 .883.086 4.56 4.56 0 0 1 .852.258c.277.113.535.254.785.418s.477.355.688.566.398.438.563.684a4.46 4.46 0 0 1 .418.785c.117.277.203.559.262.852s.086.586.086.883-.031.594-.086.887-.145.574-.262.852-.25.535-.418.781a4.32 4.32 0 0 1-.562.688c-.211.211-.441.398-.687.566s-.508.305-.785.418a4.56 4.56 0 0 1-.852.258 4.45 4.45 0 0 1-.883.086zm0-13.602h-27.211c-.297 0-.59-.031-.883-.09a4.56 4.56 0 0 1-.852-.258c-.273-.113-.535-.254-.785-.418a4.75 4.75 0 0 1-1.25-1.25c-.164-.25-.305-.512-.418-.785a4.65 4.65 0 0 1-.258-.852c-.059-.293-.09-.586-.09-.883s.031-.594.09-.887a4.65 4.65 0 0 1 .258-.852 4.55 4.55 0 0 1 .418-.781c.164-.25.355-.477.563-.687s.441-.398.688-.566.512-.305.785-.418a4.56 4.56 0 0 1 .852-.258 4.48 4.48 0 0 1 .883-.086h27.211a4.45 4.45 0 0 1 .883.086 4.56 4.56 0 0 1 .852.258c.277.113.535.254.785.418s.477.355.688.566a4.32 4.32 0 0 1 .563.688c.168.246.305.508.418.781s.203.559.262.852.086.586.086.887-.031.59-.086.883-.145.574-.262.852a4.46 4.46 0 0 1-.418.785c-.164.246-.352.477-.562.688a4.75 4.75 0 0 1-.687.563c-.25.164-.508.305-.785.418a4.56 4.56 0 0 1-.852.258c-.289.059-.586.09-.883.09zm0 0"/></g><path d="M86.844 120.582H68.703a4.45 4.45 0 0 1-.883-.086 4.56 4.56 0 0 1-.852-.258 4.22 4.22 0 0 1-.785-.422 4.51 4.51 0 0 1-.687-.562 4.32 4.32 0 0 1-.562-.687 4.2 4.2 0 0 1-.418-.785 4.34 4.34 0 0 1-.262-.848 4.81 4.81 0 0 1-.086-.887v-7.211l1.316 1.363a4.53 4.53 0 0 0 .688.566c.25.168.512.309.789.426a4.56 4.56 0 0 0 1.742.348 4.53 4.53 0 0 0 .891-.09 4.69 4.69 0 0 0 .855-.258c.273-.117.535-.258.785-.426s.477-.355.688-.566a4.4 4.4 0 0 0 .57-.691c.168-.246.309-.512.422-.785s.203-.562.262-.855a4.53 4.53 0 0 0 .09-.891c0-.297-.031-.594-.09-.887a4.33 4.33 0 0 0-.262-.855 4.38 4.38 0 0 0-.422-.789 4.5 4.5 0 0 0-.57-.687l-9.07-9.07c-.441-.402-.941-.719-1.496-.953a4.21 4.21 0 0 0-1.723-.363 4.24 4.24 0 0 0-1.723.363 5.27 5.27 0 0 0-1.496.953l-9.07 9.07a4.6 4.6 0 0 0-.566.691c-.168.25-.305.508-.418.785a4.77 4.77 0 0 0-.262.855 4.48 4.48 0 0 0-.086.887 4.56 4.56 0 0 0 .09.891c.055.293.145.574.258.852a4.38 4.38 0 0 0 .422.789 4.51 4.51 0 0 0 .563.688 4.56 4.56 0 0 0 .691.566 4.38 4.38 0 0 0 .789.422 4.56 4.56 0 0 0 .852.258c.293.059.59.09.887.09a4.53 4.53 0 0 0 .891-.09 4.56 4.56 0 0 0 .852-.258 4.38 4.38 0 0 0 .789-.422 4.54 4.54 0 0 0 .691-.562l1.313-1.363v7.211c0 .895.09 1.777.262 2.656a13.82 13.82 0 0 0 .773 2.551 13.8 13.8 0 0 0 1.258 2.352c.496.743 1.063 1.43 1.691 2.063a13.58 13.58 0 0 0 2.063 1.691c.742.496 1.527.914 2.352 1.258a13.86 13.86 0 0 0 2.555.773 13.42 13.42 0 0 0 2.652.262h18.141a4.45 4.45 0 0 0 .883-.086 4.56 4.56 0 0 0 .852-.258c.273-.117.535-.254.785-.422a4.61 4.61 0 0 0 .688-.562c.211-.21.398-.441.563-.687a4.37 4.37 0 0 0 .418-.785 4.08 4.08 0 0 0 .258-.848c.059-.293.09-.59.09-.887s-.031-.594-.09-.883a4.04 4.04 0 0 0-.258-.852c-.113-.277-.254-.539-.418-.785a4.51 4.51 0 0 0-1.249-1.249c-.246-.164-.512-.305-.785-.422a4.56 4.56 0 0 0-.852-.258c-.289-.055-.586-.086-.883-.086zM144.48 40.27a4.8 4.8 0 0 0-.687-.57 4.38 4.38 0 0 0-.789-.422 4.33 4.33 0 0 0-.852-.262 4.5 4.5 0 0 0-.891-.086 4.53 4.53 0 0 0-.891.086c-.293.059-.578.145-.855.262a4.48 4.48 0 0 0-.785.422 4.54 4.54 0 0 0-.687.57l-1.316 1.359v-7.211a13.45 13.45 0 0 0-.262-2.652 13.82 13.82 0 0 0-.773-2.551 13.77 13.77 0 0 0-1.258-2.355 13.36 13.36 0 0 0-1.691-2.059 13.58 13.58 0 0 0-2.062-1.691c-.742-.496-1.527-.918-2.352-1.258a13.25 13.25 0 0 0-2.551-.773 13.49 13.49 0 0 0-2.656-.262h-18.137a4.49 4.49 0 0 0-.887.086 4.65 4.65 0 0 0-.852.258 4.55 4.55 0 0 0-.781.418 4.57 4.57 0 0 0-1.254 1.254 4.55 4.55 0 0 0-.418.781 4.65 4.65 0 0 0-.258.852 4.49 4.49 0 0 0-.086.887 4.48 4.48 0 0 0 .086.883 4.65 4.65 0 0 0 .258.852c.113.273.254.535.418.785a4.54 4.54 0 0 0 .566.684 4.57 4.57 0 0 0 .688.566 4.55 4.55 0 0 0 .781.418 4.65 4.65 0 0 0 .852.258 4.49 4.49 0 0 0 .887.086h18.137c.297 0 .594.031.887.09s.574.145.852.258a4.55 4.55 0 0 1 .781.418c.25.164.477.355.688.566a4.54 4.54 0 0 1 .566.684c.164.25.305.512.418.785a4.65 4.65 0 0 1 .258.852 4.48 4.48 0 0 1 .086.883v7.211l-1.316-1.359c-.211-.211-.441-.398-.687-.566a4.93 4.93 0 0 0-.789-.422 4.56 4.56 0 0 0-.852-.258 4.53 4.53 0 0 0-.891-.086 4.52 4.52 0 0 0-.887.086 4.69 4.69 0 0 0-.855.258 4.73 4.73 0 0 0-.785.422 4.6 4.6 0 0 0-1.257 1.257 4.46 4.46 0 0 0-.422.785 4.69 4.69 0 0 0-.258.855 4.52 4.52 0 0 0-.086.887 4.53 4.53 0 0 0 .086.891 4.56 4.56 0 0 0 .258.852 4.64 4.64 0 0 0 .422.789c.168.25.355.477.566.691l9.07 9.066a5.09 5.09 0 0 0 1.496.953 4.21 4.21 0 0 0 1.723.363 4.21 4.21 0 0 0 1.723-.363 5.04 5.04 0 0 0 1.496-.953l9.07-9.066a4.4 4.4 0 0 0 .57-.691c.168-.246.309-.512.422-.785s.203-.562.262-.855a4.53 4.53 0 0 0 .09-.891c0-.297-.031-.594-.09-.887a4.33 4.33 0 0 0-.262-.855 4.38 4.38 0 0 0-.422-.789 4.5 4.5 0 0 0-.57-.687zm0 0" fill="#f99f09"/><g fill="#145693"><path d="M52.781 156.191c.102-.113.254-.191.453-.234l.578-.109c.395-.008.688.074.875.25s.313.414.375.703a3.8 3.8 0 0 1 .109.922c.008.324.035.617.078.875l1.516.203a5.2 5.2 0 0 0 1.5-.125c.219-.625.297-1.238.234-1.844-.055-.613-.211-1.176-.469-1.687a4.71 4.71 0 0 0-1.047-1.375c-.437-.395-.93-.711-1.469-.953s-1.125-.379-1.75-.422c-.617-.039-1.242.043-1.875.25l-.562.188a2.04 2.04 0 0 0-.484.281c-.262.23-.484.496-.672.797s-.344.637-.469 1c-.086.211-.152.434-.203.672-.043.242-.047.477-.016.703l-.047 2.938v2.266l.031 1.813.078 1.547c.051.574.227 1.055.531 1.438.313.387.691.688 1.141.906a4.96 4.96 0 0 0 1.469.406c.531.063 1.039.063 1.531 0 .758-.023 1.438-.215 2.031-.578.602-.363 1.086-.828 1.453-1.391.375-.562.613-1.195.719-1.906.113-.707.055-1.422-.172-2.141a3.32 3.32 0 0 0-.656-.094l-.734-.031-.734.031c-.242.012-.453 0-.641-.031a3.77 3.77 0 0 0-.078 1.047 2.07 2.07 0 0 1-.187 1c-.148.281-.355.48-.625.594-.262.117-.543.156-.844.125a1.25 1.25 0 0 1-.859-.719c-.168-.383-.273-.773-.312-1.172-.043-.477-.062-1.047-.062-1.703l.016-1.891.047-1.562c.02-.437.047-.676.078-.719a1.44 1.44 0 0 1 .047-.141c.02-.062.047-.102.078-.125zm0 0"/><use xlink:href="#C"/><path d="M78.037 153.254a4.4 4.4 0 0 0-.734-.062l-.766-.016h-.75c-.242-.008-.48-.047-.719-.109-.023 0-.031.016-.031.047a19.71 19.71 0 0 0-.406 1.859l-.344 2.172-.437 2.563-.625 3.063c-.281-1.113-.492-2.191-.625-3.234l-.281-2.875-.094-2.219-.094-1.344c-.117-.031-.32-.051-.609-.062a9.77 9.77 0 0 0-.906-.016 8.89 8.89 0 0 0-.891.078c-.273.043-.449.109-.531.203v.016l.891 7.094a65.17 65.17 0 0 0 1.531 6.844 3.26 3.26 0 0 0 .781.141l.922.031c.289 0 .551-.016.781-.047l.516-.031.953-3.531.875-3.484.844-3.484.75-3.594zm8.466 0a4.04 4.04 0 0 1-.719.031l-.687-.062-.672-.047a3.94 3.94 0 0 0-.578.016l-.062.891v1.031l.016 1.063.016.984h-.687a9.49 9.49 0 0 1-.781-.031l-.047 2.516h.781l.703-.016.016 2.922c.031.938.133 1.938.313 3 .176.43.469.766.875 1.016a4.92 4.92 0 0 0 1.391.547c.524.125 1.078.211 1.672.25.594.031 1.16.031 1.703 0 .07-.207.117-.43.141-.672.02-.25.02-.5 0-.75l-.062-.719-.078-.641a9.34 9.34 0 0 1-.812 0 8.76 8.76 0 0 1-.922-.109c-.305-.062-.586-.148-.844-.266s-.461-.266-.594-.453l-.016-1.984v-2.187h3.188c-.023-.176-.023-.391 0-.641l.047-.75v-.687c-.012-.219-.07-.383-.172-.5l-1.766.109-1.344.063-.016-.594v-.562zm4.466 4.703l-.187.609a4.09 4.09 0 0 0-.141.609c-.043.262-.07.512-.078.75l-.016.734c.039.461.051.965.031 1.516v1.625c.031.543.113 1.063.25 1.563a2.48 2.48 0 0 0 .766 1.234c.477.48 1.07.781 1.781.906l1.266.047c.469.039.922.039 1.359 0a4.66 4.66 0 0 0 1.234-.25c.375-.133.68-.367.922-.703.133-.133.238-.383.313-.75l.188-1.266.109-1.469.047-1.359-.047-1.328a8.54 8.54 0 0 0-.109-1.203c-.055-.363-.137-.68-.25-.953-.105-.281-.25-.477-.437-.594a3 3 0 0 0-1.031-.641 4.36 4.36 0 0 0-1.266-.25 4.38 4.38 0 0 0-.812-.016 4.52 4.52 0 0 1-.797 0c-.324 0-.648.023-.969.063a3.7 3.7 0 0 0-.906.203 3.2 3.2 0 0 0-.75.391c-.211.148-.367.324-.469.531zm2.578 2.438c.188-.219.422-.367.703-.453.539-.125.973-.078 1.297.141.332.219.535.57.609 1.047.082.406.102.836.063 1.281l-.125 1.328c-.086.344-.246.57-.484.672-.18.094-.406.164-.687.203a2.16 2.16 0 0 1-.781-.047 1.52 1.52 0 0 1-.656-.344c-.18-.176-.258-.422-.234-.734l.031-1.375a9.27 9.27 0 0 1 .094-1.312c.031-.219.086-.352.172-.406zm15.615-7.532l-.047 4.891.078 4.734c-.023.211-.059.406-.109.594a1.59 1.59 0 0 1-.234.5c-.101.145-.234.258-.391.328-.148.063-.324.074-.531.031-.25-.008-.453-.098-.609-.266-.148-.164-.266-.367-.359-.609a3.39 3.39 0 0 1-.203-.766l-.062-.719v-.125l-.828-.094a8.33 8.33 0 0 0-.875-.047l-.828.031a3.98 3.98 0 0 0-.672.078 15.34 15.34 0 0 0 .031 1.719c.051.625.164 1.227.344 1.797a4.61 4.61 0 0 0 .781 1.516c.344.438.797.742 1.359.906.625.133 1.281.188 1.969.156a4.56 4.56 0 0 0 1.891-.484c.633-.238 1.113-.602 1.438-1.094.32-.5.547-1.051.672-1.656a9.47 9.47 0 0 0 .219-1.875l.063-1.828-.047-3.984-.031-3.922-3.016.047zm0 0"/><use xlink:href="#C" x="54.099"/><path d="M131.98 155.16a2.99 2.99 0 0 0-.844-1.266 4.53 4.53 0 0 0-1.359-.687c-.5-.156-1.016-.25-1.547-.281a6.49 6.49 0 0 0-1.594.109c-.523.105-1.012.266-1.469.484a2.9 2.9 0 0 0-.469.375 3.69 3.69 0 0 0-.859 1.656 8.53 8.53 0 0 0-.234 1.875 27.35 27.35 0 0 0-.031 3.25l.141 3.219a8.77 8.77 0 0 0 .109 1.203 3.42 3.42 0 0 0 .375 1.094c.125.273.281.496.469.672.195.168.414.309.656.422a3.8 3.8 0 0 0 .766.234 7.35 7.35 0 0 0 .828.109 7.53 7.53 0 0 0 1.188 0c.395-.023.785-.09 1.172-.203a5.66 5.66 0 0 0 1.203-.469c.375-.195.68-.461.922-.797.25-.395.43-.836.547-1.328.125-.488.203-.973.234-1.453l.063-.672.063-2.109.047-2.125v-1.016l-.047-1.031-.125-.641a2.66 2.66 0 0 0-.203-.625zm-2.203 6.016l-.016.359-.031.719a4.09 4.09 0 0 0-.031.688 2.16 2.16 0 0 1-.016.438.79.79 0 0 1-.109.344 3.89 3.89 0 0 1-.25.406c-.211.23-.465.398-.766.5s-.605.148-.906.125-.59-.102-.859-.25a1.49 1.49 0 0 1-.594-.641c-.137-.457-.219-.937-.25-1.437l-.141-1.484-.016-1.719c.02-.582.086-1.133.203-1.656.164-.57.488-1.047.969-1.422a1.93 1.93 0 0 1 .766-.344 1.41 1.41 0 0 1 .844.047c.313.156.563.398.75.719a2.39 2.39 0 0 1 .328 1.047l.047.75.031.422.047 1.406zm11.899 6.296c.227 0 .391-.016.484-.047l.188-.062v-.406l-.016-.828v-.828-1.125l.016-1.172v-1.766l-.016-1.75v-6.641a6.77 6.77 0 0 0-1.359-.125 8.58 8.58 0 0 0-1.484.125l-.047.953v.875l.031 1.469.031 1.531c0 .23-.016.469-.047.719-.023.25-.055.387-.094.406-.012 0-.059-.078-.141-.234l-.312-.578-.375-.766-.391-.797-.328-.672-.187-.391-.328-.719-.25-.5-.234-.469-.266-.625c0-.031-.074-.055-.219-.078a5.06 5.06 0 0 0-.5-.078 5.61 5.61 0 0 0-.578-.031l-.406-.016-.484.016a3.25 3.25 0 0 0-.453.063l-.141 2.719-.047 2.813.031 3.719.031 3.719v1.453a7.75 7.75 0 0 1 .984.063 8.55 8.55 0 0 0 1 .063 3.44 3.44 0 0 0 .453-.031 2.5 2.5 0 0 0 .453-.078l-.016-.781v-.937-1.781l.031-1.687.063-1.266.047-.5c.031 0 .066.07.109.203l.156.422.219.609a29.95 29.95 0 0 0 1.141 2.766l1.344 2.953.953.047.953.063zm-67.201 10.045a.46.46 0 0 1 .266-.141l.359-.062c.238-.008.41.043.516.156.113.105.191.246.234.422a1.89 1.89 0 0 1 .078.547c0 .199.016.383.047.547a8.53 8.53 0 0 0 .906.109c.301.023.609 0 .922-.062a2.83 2.83 0 0 0 .141-1.125 2.8 2.8 0 0 0-.281-1.031 2.78 2.78 0 0 0-.641-.828 3.61 3.61 0 0 0-.906-.578c-.324-.145-.672-.227-1.047-.25-.375-.031-.758.016-1.141.141a2.27 2.27 0 0 0-.344.125c-.105.043-.203.102-.297.172-.156.137-.293.297-.406.484-.117.18-.211.375-.281.594-.055.125-.094.262-.125.406a1.83 1.83 0 0 0-.016.438l-.016 1.781v1.375l.016 1.094.047.938c.031.355.141.652.328.891.188.23.414.414.688.547.281.125.578.203.891.234.32.039.633.039.938 0a2.4 2.4 0 0 0 1.219-.344 2.79 2.79 0 0 0 .891-.844 2.81 2.81 0 0 0 .438-1.156c.063-.437.023-.867-.109-1.297a2.21 2.21 0 0 0-.391-.062l-.453-.016-.437.016c-.148.012-.277.008-.391-.016-.043.211-.059.422-.047.641.008.211-.031.406-.125.594-.086.168-.211.289-.375.359a.91.91 0 0 1-.516.078c-.242-.062-.414-.207-.516-.437s-.168-.461-.187-.703c-.031-.289-.047-.633-.047-1.031l.016-1.156.031-.937c.008-.27.023-.422.047-.453.008-.008.02-.035.031-.078s.023-.066.047-.078zm4.248 1.078l-.109.375c-.055.148-.086.266-.094.359l-.047.453-.016.453a5.36 5.36 0 0 1 .016.906v1a4.39 4.39 0 0 0 .156.938 1.49 1.49 0 0 0 .469.75c.289.293.648.477 1.078.563l.766.031c.289.02.566.02.828 0a2.98 2.98 0 0 0 .75-.156 1.15 1.15 0 0 0 .563-.437c.082-.082.145-.234.188-.453a5.62 5.62 0 0 0 .109-.766l.063-.891.031-.828-.016-.797-.062-.734a2.35 2.35 0 0 0-.156-.578.72.72 0 0 0-.266-.359 1.81 1.81 0 0 0-.641-.375 2.76 2.76 0 0 0-.75-.172 2.14 2.14 0 0 0-.5 0 2.25 2.25 0 0 1-.484-.016c-.199 0-.398.016-.594.047a2.57 2.57 0 0 0-.562.125 1.76 1.76 0 0 0-.437.234.93.93 0 0 0-.281.328zm1.563 1.469c.113-.133.254-.223.422-.266.332-.082.598-.055.797.078s.316.352.359.641a2.74 2.74 0 0 1 .047.766l-.078.813c-.055.211-.152.344-.297.406-.105.063-.242.105-.406.125s-.328.016-.484-.016a.91.91 0 0 1-.406-.219c-.105-.102-.152-.254-.141-.453l.031-.828a7.02 7.02 0 0 1 .047-.797c.02-.133.055-.219.109-.25zm5.59-1.344v-.312l-.016-.359c0-.02-.039-.031-.109-.031a1.02 1.02 0 0 0-.219 0l-.25.031-.172.016-.266.031h-.187-.187l-.234-.031-.031 3.203.031 3.063.5-.016.359.016a2.3 2.3 0 0 0 .328 0c.102 0 .227-.023.375-.062v-.062a7.03 7.03 0 0 0 .047-.812l-.016-.844-.031-.828c-.012-.281-.008-.566.016-.859.008-.227.063-.398.156-.516a.69.69 0 0 1 .344-.219.82.82 0 0 1 .375-.031 1.57 1.57 0 0 1 .313.078c0 .012.004.016.016.016s.02.008.031.016c.063.055.109.125.141.219a1.77 1.77 0 0 1 .094.313l.047.359.031.328.016.719v.781.75l.031.656h.781a6.06 6.06 0 0 0 .781-.062l-.016-.984.031-1.172.016-1.203-.016-1.094c-.012-.332-.043-.613-.094-.844-.043-.238-.105-.398-.187-.484a1.38 1.38 0 0 0-.578-.297 2.17 2.17 0 0 0-.672-.078 1.9 1.9 0 0 0-.672.125 2.28 2.28 0 0 0-.594.297 1.1 1.1 0 0 1-.156.094c-.062.031-.117.063-.156.094zm5.398-.641c-.262-.031-.543-.035-.844-.016a4.86 4.86 0 0 1-.891-.016l.719 3.094.578 3.188h.547l.625.016h.625a5.01 5.01 0 0 0 .563-.031l.375-1.594.359-1.609.359-1.578a15.27 15.27 0 0 1 .469-1.484h-.484l-.406.016-.391.016a4.42 4.42 0 0 1-.406.016c-.094.25-.184.57-.266.953l-.234 1.188-.219 1.188c-.074.375-.156.688-.25.938-.094-.25-.18-.555-.25-.922l-.219-1.141-.187-1.187-.172-1.031zm0 0"/><use xlink:href="#D"/><use xlink:href="#E"/><path d="M107.619 175.736c-.137.023-.277.027-.422.016l-.437-.031-.406-.031c-.125-.008-.242-.004-.344.016a4.98 4.98 0 0 0-.047.531v.625l.016.656.016.594h-.422a6.55 6.55 0 0 1-.469-.016l-.031 1.516h.484.406l.016 1.766c.02.574.082 1.184.188 1.828a1.4 1.4 0 0 0 .531.609c.25.148.531.262.844.344a5.95 5.95 0 0 0 1.016.141c.363.02.711.02 1.047 0a1.83 1.83 0 0 0 .078-.406c.008-.156.008-.305 0-.453 0-.156-.012-.301-.031-.437l-.047-.391c-.148.012-.312.012-.5 0s-.375-.031-.562-.062c-.18-.039-.352-.094-.516-.156-.156-.07-.277-.164-.359-.281v-1.203-1.328h1.938c-.023-.102-.027-.234-.016-.391a3.63 3.63 0 0 0 .031-.453 3.79 3.79 0 0 0 0-.422c0-.133-.031-.234-.094-.297l-1.078.063-.812.031-.016-.359v-.344zm0 0"/><use xlink:href="#D" x="15.007"/><use xlink:href="#E" x="15.006"/></g></svg>